<svg xmlns="http://www.w3.org/2000/svg" width="360" height="360" viewBox="0 0 360 360"><polygon points="6.3,-7.6 51.2,-7.1 30.5,42.5 -7.5,42.6" fill="#E7E7EA" stroke="#FAFAFB" stroke-width="3" stroke-linejoin="round"/><polygon points="-7.5,42.6 30.5,42.5 48.7,91.7 -11.3,87.1" fill="#E3E3E6" stroke="#FAFAFB" stroke-width="3" stroke-linejoin="round"/><polygon points="-11.3,87.1 48.7,91.7 36.5,128.4 6.8,108.3" fill="#F2F2F4" stroke="#FAFAFB" stroke-width="3" stroke-linejoin="round"/><polygon points="6.8,108.3 36.5,128.4 28.0,172.0 4.7,160.1" fill="#E3E3E6" stroke="#FAFAFB" stroke-width="3" stroke-linejoin="round"/><polygon points="4.7,160.1 28.0,172.0 34.7,201.1 3.5,211.6" fill="#E7E7EA" stroke="#FAFAFB" stroke-width="3" stroke-linejoin="round"/><polygon points="3.5,211.6 34.7,201.1 30.4,228.3 12.5,237.7" fill="#EDEDF0" stroke="#FAFAFB" stroke-width="3" stroke-linejoin="round"/><polygon points="12.5,237.7 30.4,228.3 27.4,282.6 8.8,287.3" fill="#EDEDF0" stroke="#FAFAFB" stroke-width="3" stroke-linejoin="round"/><polygon points="8.8,287.3 27.4,282.6 41.6,328.1 12.1,307.9" fill="#E7E7EA" stroke="#FAFAFB" stroke-width="3" stroke-linejoin="round"/><polygon points="12.1,307.9 41.6,328.1 51.2,352.9" fill="#D8D8DD" stroke="#FAFAFB" stroke-width="3" stroke-linejoin="round"/><polygon points="12.1,307.9 51.2,352.9 6.3,352.4" fill="#F2F2F4" stroke="#FAFAFB" stroke-width="3" stroke-linejoin="round"/><polygon points="51.2,-7.1 89.0,-2.0 88.9,32.3 30.5,42.5" fill="#E3E3E6" stroke="#FAFAFB" stroke-width="3" stroke-linejoin="round"/><polygon points="30.5,42.5 88.9,32.3 89.8,73.6 48.7,91.7" fill="#DCDCE0" stroke="#FAFAFB" stroke-width="3" stroke-linejoin="round"/><polygon points="48.7,91.7 89.8,73.6 91.3,117.0 36.5,128.4" fill="#F2F2F4" stroke="#FAFAFB" stroke-width="3" stroke-linejoin="round"/><polygon points="36.5,128.4 91.3,117.0 78.2,160.5" fill="#E3E3E6" stroke="#FAFAFB" stroke-width="3" stroke-linejoin="round"/><polygon points="36.5,128.4 78.2,160.5 28.0,172.0" fill="#E7E7EA" stroke="#FAFAFB" stroke-width="3" stroke-linejoin="round"/><polygon points="28.0,172.0 78.2,160.5 68.7,189.1" fill="#E3E3E6" stroke="#FAFAFB" stroke-width="3" stroke-linejoin="round"/><polygon points="28.0,172.0 68.7,189.1 34.7,201.1" fill="#E3E3E6" stroke="#FAFAFB" stroke-width="3" stroke-linejoin="round"/><polygon points="34.7,201.1 68.7,189.1 81.2,245.5 30.4,228.3" fill="#D8D8DD" stroke="#FAFAFB" stroke-width="3" stroke-linejoin="round"/><polygon points="30.4,228.3 81.2,245.5 68.3,277.6 27.4,282.6" fill="#E7E7EA" stroke="#FAFAFB" stroke-width="3" stroke-linejoin="round"/><polygon points="27.4,282.6 68.3,277.6 76.7,327.2 41.6,328.1" fill="#E3E3E6" stroke="#FAFAFB" stroke-width="3" stroke-linejoin="round"/><polygon points="41.6,328.1 76.7,327.2 89.0,358.0" fill="#D8D8DD" stroke="#FAFAFB" stroke-width="3" stroke-linejoin="round"/><polygon points="41.6,328.1 89.0,358.0 51.2,352.9" fill="#D8D8DD" stroke="#FAFAFB" stroke-width="3" stroke-linejoin="round"/><polygon points="89.0,-2.0 132.6,-10.5 121.1,29.9 88.9,32.3" fill="#E3E3E6" stroke="#FAFAFB" stroke-width="3" stroke-linejoin="round"/><polygon points="88.9,32.3 121.1,29.9 127.3,91.3 89.8,73.6" fill="#D8D8DD" stroke="#FAFAFB" stroke-width="3" stroke-linejoin="round"/><polygon points="89.8,73.6 127.3,91.3 125.3,122.1 91.3,117.0" fill="#F2F2F4" stroke="#FAFAFB" stroke-width="3" stroke-linejoin="round"/><polygon points="91.3,117.0 125.3,122.1 108.2,149.7 78.2,160.5" fill="#D8D8DD" stroke="#FAFAFB" stroke-width="3" stroke-linejoin="round"/><polygon points="78.2,160.5 108.2,149.7 113.3,189.3 68.7,189.1" fill="#F2F2F4" stroke="#FAFAFB" stroke-width="3" stroke-linejoin="round"/><polygon points="68.7,189.1 113.3,189.3 110.6,251.8" fill="#E7E7EA" stroke="#FAFAFB" stroke-width="3" stroke-linejoin="round"/><polygon points="68.7,189.1 110.6,251.8 81.2,245.5" fill="#DCDCE0" stroke="#FAFAFB" stroke-width="3" stroke-linejoin="round"/><polygon points="81.2,245.5 110.6,251.8 116.1,290.4 68.3,277.6" fill="#D8D8DD" stroke="#FAFAFB" stroke-width="3" stroke-linejoin="round"/><polygon points="68.3,277.6 116.1,290.4 126.7,327.1 76.7,327.2" fill="#D8D8DD" stroke="#FAFAFB" stroke-width="3" stroke-linejoin="round"/><polygon points="76.7,327.2 126.7,327.1 132.6,349.5" fill="#F2F2F4" stroke="#FAFAFB" stroke-width="3" stroke-linejoin="round"/><polygon points="76.7,327.2 132.6,349.5 89.0,358.0" fill="#EDEDF0" stroke="#FAFAFB" stroke-width="3" stroke-linejoin="round"/><polygon points="132.6,-10.5 170.6,5.1 156.1,39.2" fill="#D8D8DD" stroke="#FAFAFB" stroke-width="3" stroke-linejoin="round"/><polygon points="132.6,-10.5 156.1,39.2 121.1,29.9" fill="#E3E3E6" stroke="#FAFAFB" stroke-width="3" stroke-linejoin="round"/><polygon points="121.1,29.9 156.1,39.2 157.2,68.0" fill="#E7E7EA" stroke="#FAFAFB" stroke-width="3" stroke-linejoin="round"/><polygon points="121.1,29.9 157.2,68.0 127.3,91.3" fill="#EDEDF0" stroke="#FAFAFB" stroke-width="3" stroke-linejoin="round"/><polygon points="127.3,91.3 157.2,68.0 148.3,121.7 125.3,122.1" fill="#D8D8DD" stroke="#FAFAFB" stroke-width="3" stroke-linejoin="round"/><polygon points="125.3,122.1 148.3,121.7 160.6,172.1 108.2,149.7" fill="#EDEDF0" stroke="#FAFAFB" stroke-width="3" stroke-linejoin="round"/><polygon points="108.2,149.7 160.6,172.1 163.1,208.2 113.3,189.3" fill="#E3E3E6" stroke="#FAFAFB" stroke-width="3" stroke-linejoin="round"/><polygon points="113.3,189.3 163.1,208.2 159.4,242.1 110.6,251.8" fill="#E7E7EA" stroke="#FAFAFB" stroke-width="3" stroke-linejoin="round"/><polygon points="110.6,251.8 159.4,242.1 168.1,268.1 116.1,290.4" fill="#F2F2F4" stroke="#FAFAFB" stroke-width="3" stroke-linejoin="round"/><polygon points="116.1,290.4 168.1,268.1 147.7,318.2 126.7,327.1" fill="#EDEDF0" stroke="#FAFAFB" stroke-width="3" stroke-linejoin="round"/><polygon points="126.7,327.1 147.7,318.2 170.6,365.1 132.6,349.5" fill="#F2F2F4" stroke="#FAFAFB" stroke-width="3" stroke-linejoin="round"/><polygon points="170.6,5.1 194.7,-1.8 188.8,31.5 156.1,39.2" fill="#F2F2F4" stroke="#FAFAFB" stroke-width="3" stroke-linejoin="round"/><polygon points="156.1,39.2 188.8,31.5 189.7,82.8" fill="#E3E3E6" stroke="#FAFAFB" stroke-width="3" stroke-linejoin="round"/><polygon points="156.1,39.2 189.7,82.8 157.2,68.0" fill="#DCDCE0" stroke="#FAFAFB" stroke-width="3" stroke-linejoin="round"/><polygon points="157.2,68.0 189.7,82.8 188.0,107.7" fill="#EDEDF0" stroke="#FAFAFB" stroke-width="3" stroke-linejoin="round"/><polygon points="157.2,68.0 188.0,107.7 148.3,121.7" fill="#E7E7EA" stroke="#FAFAFB" stroke-width="3" stroke-linejoin="round"/><polygon points="148.3,121.7 188.0,107.7 204.6,158.0 160.6,172.1" fill="#D8D8DD" stroke="#FAFAFB" stroke-width="3" stroke-linejoin="round"/><polygon points="160.6,172.1 204.6,158.0 187.8,211.3 163.1,208.2" fill="#E3E3E6" stroke="#FAFAFB" stroke-width="3" stroke-linejoin="round"/><polygon points="163.1,208.2 187.8,211.3 199.8,251.2" fill="#D8D8DD" stroke="#FAFAFB" stroke-width="3" stroke-linejoin="round"/><polygon points="163.1,208.2 199.8,251.2 159.4,242.1" fill="#D8D8DD" stroke="#FAFAFB" stroke-width="3" stroke-linejoin="round"/><polygon points="159.4,242.1 199.8,251.2 203.8,281.2" fill="#F2F2F4" stroke="#FAFAFB" stroke-width="3" stroke-linejoin="round"/><polygon points="159.4,242.1 203.8,281.2 168.1,268.1" fill="#E3E3E6" stroke="#FAFAFB" stroke-width="3" stroke-linejoin="round"/><polygon points="168.1,268.1 203.8,281.2 197.3,309.8" fill="#DCDCE0" stroke="#FAFAFB" stroke-width="3" stroke-linejoin="round"/><polygon points="168.1,268.1 197.3,309.8 147.7,318.2" fill="#E7E7EA" stroke="#FAFAFB" stroke-width="3" stroke-linejoin="round"/><polygon points="147.7,318.2 197.3,309.8 194.7,358.2 170.6,365.1" fill="#F2F2F4" stroke="#FAFAFB" stroke-width="3" stroke-linejoin="round"/><polygon points="194.7,-1.8 251.9,-1.5 235.0,30.9 188.8,31.5" fill="#DCDCE0" stroke="#FAFAFB" stroke-width="3" stroke-linejoin="round"/><polygon points="188.8,31.5 235.0,30.9 242.5,92.4" fill="#E3E3E6" stroke="#FAFAFB" stroke-width="3" stroke-linejoin="round"/><polygon points="188.8,31.5 242.5,92.4 189.7,82.8" fill="#D8D8DD" stroke="#FAFAFB" stroke-width="3" stroke-linejoin="round"/><polygon points="189.7,82.8 242.5,92.4 237.5,127.9 188.0,107.7" fill="#EDEDF0" stroke="#FAFAFB" stroke-width="3" stroke-linejoin="round"/><polygon points="188.0,107.7 237.5,127.9 245.1,160.4 204.6,158.0" fill="#DCDCE0" stroke="#FAFAFB" stroke-width="3" stroke-linejoin="round"/><polygon points="204.6,158.0 245.1,160.4 243.9,205.9 187.8,211.3" fill="#E3E3E6" stroke="#FAFAFB" stroke-width="3" stroke-linejoin="round"/><polygon points="187.8,211.3 243.9,205.9 251.0,228.3 199.8,251.2" fill="#E7E7EA" stroke="#FAFAFB" stroke-width="3" stroke-linejoin="round"/><polygon points="199.8,251.2 251.0,228.3 230.9,273.4 203.8,281.2" fill="#E3E3E6" stroke="#FAFAFB" stroke-width="3" stroke-linejoin="round"/><polygon points="203.8,281.2 230.9,273.4 228.9,314.4 197.3,309.8" fill="#EDEDF0" stroke="#FAFAFB" stroke-width="3" stroke-linejoin="round"/><polygon points="197.3,309.8 228.9,314.4 251.9,358.5 194.7,358.2" fill="#D8D8DD" stroke="#FAFAFB" stroke-width="3" stroke-linejoin="round"/><polygon points="251.9,-1.5 278.3,-7.2 280.0,27.4 235.0,30.9" fill="#F2F2F4" stroke="#FAFAFB" stroke-width="3" stroke-linejoin="round"/><polygon points="235.0,30.9 280.0,27.4 290.6,85.5 242.5,92.4" fill="#E7E7EA" stroke="#FAFAFB" stroke-width="3" stroke-linejoin="round"/><polygon points="242.5,92.4 290.6,85.5 269.9,112.7 237.5,127.9" fill="#D8D8DD" stroke="#FAFAFB" stroke-width="3" stroke-linejoin="round"/><polygon points="237.5,127.9 269.9,112.7 286.6,150.9 245.1,160.4" fill="#E7E7EA" stroke="#FAFAFB" stroke-width="3" stroke-linejoin="round"/><polygon points="245.1,160.4 286.6,150.9 286.0,188.2 243.9,205.9" fill="#D8D8DD" stroke="#FAFAFB" stroke-width="3" stroke-linejoin="round"/><polygon points="243.9,205.9 286.0,188.2 283.1,244.6" fill="#D8D8DD" stroke="#FAFAFB" stroke-width="3" stroke-linejoin="round"/><polygon points="243.9,205.9 283.1,244.6 251.0,228.3" fill="#F2F2F4" stroke="#FAFAFB" stroke-width="3" stroke-linejoin="round"/><polygon points="251.0,228.3 283.1,244.6 281.1,287.5 230.9,273.4" fill="#D8D8DD" stroke="#FAFAFB" stroke-width="3" stroke-linejoin="round"/><polygon points="230.9,273.4 281.1,287.5 291.3,332.4 228.9,314.4" fill="#DCDCE0" stroke="#FAFAFB" stroke-width="3" stroke-linejoin="round"/><polygon points="228.9,314.4 291.3,332.4 278.3,352.8" fill="#DCDCE0" stroke="#FAFAFB" stroke-width="3" stroke-linejoin="round"/><polygon points="228.9,314.4 278.3,352.8 251.9,358.5" fill="#DCDCE0" stroke="#FAFAFB" stroke-width="3" stroke-linejoin="round"/><polygon points="278.3,-7.2 308.6,-0.4 310.2,46.3" fill="#EDEDF0" stroke="#FAFAFB" stroke-width="3" stroke-linejoin="round"/><polygon points="278.3,-7.2 310.2,46.3 280.0,27.4" fill="#E7E7EA" stroke="#FAFAFB" stroke-width="3" stroke-linejoin="round"/><polygon points="280.0,27.4 310.2,46.3 312.5,71.5" fill="#D8D8DD" stroke="#FAFAFB" stroke-width="3" stroke-linejoin="round"/><polygon points="280.0,27.4 312.5,71.5 290.6,85.5" fill="#E7E7EA" stroke="#FAFAFB" stroke-width="3" stroke-linejoin="round"/><polygon points="290.6,85.5 312.5,71.5 308.7,107.6 269.9,112.7" fill="#F2F2F4" stroke="#FAFAFB" stroke-width="3" stroke-linejoin="round"/><polygon points="269.9,112.7 308.7,107.6 313.9,152.2 286.6,150.9" fill="#EDEDF0" stroke="#FAFAFB" stroke-width="3" stroke-linejoin="round"/><polygon points="286.6,150.9 313.9,152.2 320.6,208.2 286.0,188.2" fill="#E3E3E6" stroke="#FAFAFB" stroke-width="3" stroke-linejoin="round"/><polygon points="286.0,188.2 320.6,208.2 325.7,235.5" fill="#D8D8DD" stroke="#FAFAFB" stroke-width="3" stroke-linejoin="round"/><polygon points="286.0,188.2 325.7,235.5 283.1,244.6" fill="#E7E7EA" stroke="#FAFAFB" stroke-width="3" stroke-linejoin="round"/><polygon points="283.1,244.6 325.7,235.5 313.8,287.1 281.1,287.5" fill="#EDEDF0" stroke="#FAFAFB" stroke-width="3" stroke-linejoin="round"/><polygon points="281.1,287.5 313.8,287.1 314.2,323.8 291.3,332.4" fill="#E7E7EA" stroke="#FAFAFB" stroke-width="3" stroke-linejoin="round"/><polygon points="291.3,332.4 314.2,323.8 308.6,359.6 278.3,352.8" fill="#F2F2F4" stroke="#FAFAFB" stroke-width="3" stroke-linejoin="round"/><polygon points="308.6,-0.4 366.3,-7.6 352.5,42.6 310.2,46.3" fill="#E3E3E6" stroke="#FAFAFB" stroke-width="3" stroke-linejoin="round"/><polygon points="310.2,46.3 352.5,42.6 348.7,87.1 312.5,71.5" fill="#F2F2F4" stroke="#FAFAFB" stroke-width="3" stroke-linejoin="round"/><polygon points="312.5,71.5 348.7,87.1 366.8,108.3 308.7,107.6" fill="#F2F2F4" stroke="#FAFAFB" stroke-width="3" stroke-linejoin="round"/><polygon points="308.7,107.6 366.8,108.3 364.7,160.1 313.9,152.2" fill="#E7E7EA" stroke="#FAFAFB" stroke-width="3" stroke-linejoin="round"/><polygon points="313.9,152.2 364.7,160.1 363.5,211.6" fill="#F2F2F4" stroke="#FAFAFB" stroke-width="3" stroke-linejoin="round"/><polygon points="313.9,152.2 363.5,211.6 320.6,208.2" fill="#DCDCE0" stroke="#FAFAFB" stroke-width="3" stroke-linejoin="round"/><polygon points="320.6,208.2 363.5,211.6 372.5,237.7" fill="#D8D8DD" stroke="#FAFAFB" stroke-width="3" stroke-linejoin="round"/><polygon points="320.6,208.2 372.5,237.7 325.7,235.5" fill="#EDEDF0" stroke="#FAFAFB" stroke-width="3" stroke-linejoin="round"/><polygon points="325.7,235.5 372.5,237.7 368.8,287.3" fill="#EDEDF0" stroke="#FAFAFB" stroke-width="3" stroke-linejoin="round"/><polygon points="325.7,235.5 368.8,287.3 313.8,287.1" fill="#DCDCE0" stroke="#FAFAFB" stroke-width="3" stroke-linejoin="round"/><polygon points="313.8,287.1 368.8,287.3 372.1,307.9 314.2,323.8" fill="#E3E3E6" stroke="#FAFAFB" stroke-width="3" stroke-linejoin="round"/><polygon points="314.2,323.8 372.1,307.9 366.3,352.4 308.6,359.6" fill="#E7E7EA" stroke="#FAFAFB" stroke-width="3" stroke-linejoin="round"/><polygon points="126.7,-32.9 147.7,-41.8 170.6,5.1 132.6,-10.5" fill="#F2F2F4" stroke="#FAFAFB" stroke-width="3" stroke-linejoin="round"/><polygon points="147.7,-41.8 197.3,-50.2 194.7,-1.8 170.6,5.1" fill="#F2F2F4" stroke="#FAFAFB" stroke-width="3" stroke-linejoin="round"/><polygon points="-47.5,71.5 -11.3,87.1 6.8,108.3 -51.3,107.6" fill="#F2F2F4" stroke="#FAFAFB" stroke-width="3" stroke-linejoin="round"/><polygon points="-51.3,107.6 6.8,108.3 4.7,160.1 -46.1,152.2" fill="#E7E7EA" stroke="#FAFAFB" stroke-width="3" stroke-linejoin="round"/><polygon points="-46.1,152.2 4.7,160.1 3.5,211.6" fill="#F2F2F4" stroke="#FAFAFB" stroke-width="3" stroke-linejoin="round"/><polygon points="-46.1,152.2 3.5,211.6 -39.4,208.2" fill="#DCDCE0" stroke="#FAFAFB" stroke-width="3" stroke-linejoin="round"/><polygon points="-39.4,208.2 3.5,211.6 12.5,237.7" fill="#D8D8DD" stroke="#FAFAFB" stroke-width="3" stroke-linejoin="round"/><polygon points="-39.4,208.2 12.5,237.7 -34.3,235.5" fill="#EDEDF0" stroke="#FAFAFB" stroke-width="3" stroke-linejoin="round"/><polygon points="-34.3,235.5 12.5,237.7 8.8,287.3" fill="#EDEDF0" stroke="#FAFAFB" stroke-width="3" stroke-linejoin="round"/><polygon points="-34.3,235.5 8.8,287.3 -46.2,287.1" fill="#DCDCE0" stroke="#FAFAFB" stroke-width="3" stroke-linejoin="round"/><polygon points="-46.2,287.1 8.8,287.3 12.1,307.9 -45.8,323.8" fill="#E3E3E6" stroke="#FAFAFB" stroke-width="3" stroke-linejoin="round"/><polygon points="-45.8,323.8 12.1,307.9 6.3,352.4 -51.4,359.6" fill="#E7E7EA" stroke="#FAFAFB" stroke-width="3" stroke-linejoin="round"/></svg>